<?xml version="1.0" encoding="UTF-8" standalone="no"?>
<!-- Created with Inkscape (http://www.inkscape.org/) -->

<svg
   xmlns:dc="http://purl.org/dc/elements/1.1/"
   xmlns:cc="http://creativecommons.org/ns#"
   xmlns:rdf="http://www.w3.org/1999/02/22-rdf-syntax-ns#"
   xmlns:svg="http://www.w3.org/2000/svg"
   xmlns="http://www.w3.org/2000/svg"
   version="1.1"
   width="117.166"
   height="55.25"
   viewBox="0 0 117.166 55.25"
   id="Layer_1"
   xml:space="preserve"><metadata
   id="metadata3009"><rdf:RDF><cc:Work
       rdf:about=""><dc:format>image/svg+xml</dc:format><dc:type
         rdf:resource="http://purl.org/dc/dcmitype/StillImage" /><dc:title></dc:title></cc:Work></rdf:RDF></metadata><defs
   id="defs3007" />
<g
   id="g2999">
    <path
   d="m 35.976,41.105 c -2.65,-4.481 -8.307,-5.864 -12.788,-3.213 -4.48,2.65 -5.913,8.225 -3.263,12.706 2.65,4.481 8.276,5.995 12.756,3.345 4.482,-2.65 5.946,-8.357 3.295,-12.838 z"
   id="path17"
   style="fill:#010101" />
    <path
   d="m 103.777,40.821 c -2.459,-4.158 -8.308,-5.866 -12.79,-3.216 -4.481,2.65 -5.721,8.551 -3.262,12.709 2.698,4.562 8.467,6.32 12.949,3.67 4.482,-2.65 5.801,-8.601 3.103,-13.163 l 0,0 z"
   id="path19"
   style="fill:#010101" />
    <path
   d="M 27.178,0.007 74.795,0 c 2.209,0.015 4.149,1.065 5.065,2.613 l 8.841,16.437 c 0.772,1.305 2.664,2.274 4.355,2.154 l 19.384,-0.137 c 1.834,0.126 3.176,1.093 4.14,2.722 0.386,0.652 0.446,1.498 0.586,2.293 l 0.106,14.126 c 0.046,3.051 -2.421,5.391 -5.473,5.435 l -4.141,0.251 c -0.021,-2.079 -0.852,-4.227 -1.815,-5.857 -3.18,-5.378 -10.36,-7.289 -15.819,-4.061 -3.504,2.072 -5.717,5.579 -5.794,9.915 l -45.218,0.344 c 0.063,-2.125 -0.331,-4.093 -1.487,-6.048 -3.229,-5.459 -10.361,-7.29 -15.82,-4.062 -3.504,2.072 -5.85,6.101 -5.794,9.915 l -8.51,0.304 C 4.431,46.341 1.573,43.742 1.854,40.496 L 1.75,26.374 c -0.262,-2.486 1.961,-4.68 4.933,-4.677 l 2.533,-0.178 c 0.519,0.133 1.315,-0.008 1.967,-0.394 0.326,-0.193 0.833,-0.822 0.885,-1.293 L 22.371,2.85 c 1.243,-1.616 2.873,-2.579 4.807,-2.843 l 0,0 z M 76.21,7.412 C 75.825,6.761 75.113,6.301 74.402,5.842 L 56.946,6.267 56.785,21.43 83.184,21.436 c 0.326,-0.193 0.978,-0.578 0.784,-0.905 L 76.21,7.412 l 0,0 z M 52.012,6.107 36.523,6.138 c -1.122,0.334 -2.1,0.912 -2.607,1.542 l -8.14,13.944 26.398,0.004 -0.162,-15.521 0,0 z"
   id="path3003"
   style="fill:#010101" />
</g>
</svg>
